Coordinates
version=1
nRows=14
nColumns=33
inDegrees=yes

Units are S.I. units (second, meters, Newtons, ...)
Angles are in degrees.

endheader
time	ground_thorax_rot_x	ground_thorax_rot_y	ground_thorax_rot_z	ground_thorax_tx	ground_thorax_ty	ground_thorax_tz	clav_prot_r	clav_elev_r	scapula_abduction_r	scapula_elevation_r	scapula_upward_rot_r	scapula_winging_r	shoulder_elv_r	plane_of_elev_r	axial_rot_r	elbow_flexion_r	pro_sup_r	wrist_flex_r	wrist_dev_r	clav_prot_l	clav_elev_l	scapula_abduction_l	scapula_elevation_l	scapula_upward_rot_l	scapula_winging_l	shoulder_elv_l	plane_of_elev_l	axial_rot_l	elbow_flexion_l	pro_sup_l	wrist_flex_l	wrist_dev_l	
2.5100	-39.327325	-8.807704	12.274536	-240.372277	843.377219	3.130687	10.036548	-45.000000	39.901742	-45.000000	-45.000000	2777.303558	-2984.412899	147.913507	-122.092558	1093.268658	21.541243	18.946704	7.174110	15.395841	38.301990	-38.559414	-45.000000	-45.000000	-1352.846813	-647.748461	23.934668	-16.967946	728.257466	26.196458	7.873058	-23.709904	
2.5200	-39.302801	-8.788938	12.350518	-240.666316	842.669228	3.151546	9.876421	-45.000000	39.835201	-45.000000	-45.000000	2777.318240	-2984.490237	147.960704	-122.323879	1093.459163	23.178018	18.964924	7.038686	15.335501	38.263397	-38.441104	-45.000000	-45.000000	-1352.897972	-647.846007	23.853464	-17.409341	728.293639	25.650507	7.787907	-23.598812	
2.5300	-39.286016	-8.769783	12.425445	-240.890823	841.920362	3.185142	9.697164	-45.000000	39.771232	-45.000000	-45.000000	2777.341318	-2984.574715	148.011668	-122.589343	1093.656130	24.744482	18.979417	6.908670	15.253678	38.248923	-38.335716	-45.000000	-45.000000	-1352.945911	-647.929323	23.778756	-17.804747	728.338266	25.164677	7.718202	-23.508186	
2.5400	-39.258548	-8.782110	12.519084	-240.961230	841.077553	3.246740	9.593169	-45.000000	39.712254	-45.000000	-45.000000	2777.377809	-2984.651872	148.043588	-122.871167	1093.809418	26.247085	18.992438	6.770720	15.223583	38.204010	-38.221402	-45.000000	-45.000000	-1353.027669	-648.015352	23.726133	-18.045786	728.347143	24.792039	7.619736	-23.407548	
2.5500	-39.227845	-8.820966	12.633162	-240.877529	840.145840	3.336974	9.527547	-45.000000	39.649958	-45.000000	-45.000000	2777.427239	-2984.726451	148.061832	-123.193204	1093.929691	27.680527	19.000493	6.629759	15.218449	38.151337	-38.112207	-45.000000	-45.000000	-1353.124440	-648.098910	23.694569	-18.163432	728.336261	24.529599	7.508807	-23.310915	
2.5600	-39.196087	-8.875895	12.757564	-240.633186	839.126486	3.457824	9.494645	-45.000000	39.586833	-45.000000	-45.000000	2777.489722	-2984.796949	148.063665	-123.555006	1094.025408	29.055900	19.003825	6.485090	15.228486	38.106849	-38.016086	-45.000000	-45.000000	-1353.236381	-648.176919	23.682840	-18.164869	728.318105	24.377215	7.389856	-23.223606	
2.5700	-39.165527	-8.957315	12.900904	-240.249527	838.039266	3.606595	9.477432	-45.000000	39.516586	-45.000000	-45.000000	2777.565148	-2984.862926	148.053365	-123.950347	1094.096152	30.395029	18.998675	6.335738	15.250208	38.064139	-37.934025	-45.000000	-45.000000	-1353.351083	-648.252429	23.687278	-18.075932	728.287757	24.315726	7.261907	-23.142033	
2.5800	-39.140880	-9.036324	13.035800	-239.763299	836.913213	3.777835	9.461073	-45.000000	39.446522	-45.000000	-45.000000	2777.648142	-2984.922968	148.028569	-124.358886	1094.166193	31.725539	18.985956	6.180192	15.265079	38.045367	-37.874729	-45.000000	-45.000000	-1353.466320	-648.322888	23.705833	-17.930502	728.269886	24.321542	7.134468	-23.073743	
2.5900	-39.121682	-9.116920	13.162090	-239.215399	835.778532	3.965100	9.443542	-45.000000	39.381152	-45.000000	-45.000000	2777.736058	-2984.973764	147.995241	-124.759083	1094.242445	33.084284	18.964320	6.013137	15.280601	38.030246	-37.827511	-45.000000	-45.000000	-1353.580280	-648.390916	23.738387	-17.746698	728.258911	24.375669	6.998942	-23.009828	
2.6000	-39.110347	-9.185872	13.267999	-238.648483	834.665087	4.160892	9.421831	-45.000000	39.321488	-45.000000	-45.000000	2777.825248	-2985.015573	147.954608	-125.132615	1094.334055	34.489387	18.932525	5.832595	15.292608	38.027008	-37.793371	-45.000000	-45.000000	-1353.693567	-648.450996	23.779935	-17.541357	728.261687	24.468169	6.856788	-22.950714	
2.6100	-39.107133	-9.252187	13.361338	-238.104280	833.601764	4.356872	9.393425	-45.000000	39.261480	-45.000000	-45.000000	2777.912513	-2985.048170	147.910075	-125.475267	1094.435210	35.953545	18.886751	5.637401	15.306516	38.020802	-37.765388	-45.000000	-45.000000	-1353.800252	-648.504232	23.827203	-17.329237	728.268639	24.593953	6.704477	-22.891169	
2.6200	-39.111427	-9.308511	13.437929	-237.620385	832.615480	4.544053	9.359299	-45.000000	39.196023	-45.000000	-45.000000	2777.993414	-2985.070395	147.859901	-125.789841	1094.542945	37.478809	18.826013	5.430089	15.319118	38.023728	-37.743120	-45.000000	-45.000000	-1353.899570	-648.547772	23.874512	-17.128419	728.287148	24.748808	6.545889	-22.833648	
2.6300	-39.123885	-9.348960	13.491452	-237.227231	831.730319	4.713262	9.319962	-45.000000	39.131030	-45.000000	-45.000000	2778.063015	-2985.084292	147.804973	-126.087904	1094.666277	39.076058	18.753581	5.214740	15.328638	38.027270	-37.724658	-45.000000	-45.000000	-1353.987901	-648.581667	23.922070	-16.953064	728.321317	24.930172	6.383138	-22.779130	
2.6400	-39.141422	-9.381513	13.527812	-236.945434	830.965400	4.855749	9.275882	-45.000000	39.066243	-45.000000	-45.000000	2778.121484	-2985.088451	147.751570	-126.379743	1094.803677	40.733224	18.671689	4.996642	15.337623	38.032974	-37.703852	-45.000000	-45.000000	-1354.064074	-648.602100	23.965616	-16.808000	728.370461	25.130404	6.217717	-22.727014	
